<svg viewBox="0 0 320 64" xmlns="http://www.w3.org/2000/svg" fill-rule="evenodd" clip-rule="evenodd"><g><path d="M91.717 0h3.057c.726 0 1.316.59 1.316 1.315V28.59h15.848c.727 0 1.316.59 1.316 1.317v3.107c0 .726-.59 1.315-1.316 1.315H91.415c-.56 0-1.014-.455-1.014-1.015v-32C90.4.59 90.99 0 91.718 0M147.83 5.74c-3.132 0-5.836 1.12-8.11 3.362-2.21 2.243-3.316 4.93-3.316 8.064 0 3.133 1.105 5.837 3.315 8.112 2.274 2.21 4.978 3.314 8.11 3.314 3.133 0 5.82-1.105 8.064-3.314 2.242-2.275 3.364-4.98 3.364-8.112 0-3.133-1.122-5.82-3.364-8.064-2.243-2.242-4.93-3.363-8.063-3.363m0-5.74c4.75 0 8.79 1.682 12.12 5.047 3.396 3.363 5.094 7.403 5.094 12.12 0 4.78-1.698 8.82-5.094 12.118-3.33 3.363-7.37 5.045-12.12 5.045-4.748 0-8.788-1.682-12.118-5.045-3.364-3.33-5.046-7.37-5.046-12.12 0-4.715 1.682-8.755 5.046-12.118C139.01 1.682 143.05 0 147.832 0" fill="#2e3133"/><path d="M198.91 17.165l15.472 15.472c.625.625.182 1.692-.7 1.692h-5.26c-.263 0-.514-.104-.7-.29l-14.55-14.45v13.748c0 .548-.444.99-.99.99h-3.707c-.547 0-.992-.442-.992-.99V.99c0-.546.445-.99.992-.99h3.706c.548 0 .992.444.992.99v13.8l14.55-14.5c.186-.187.437-.29.7-.29h5.094c.78 0 1.17.942.62 1.493L198.91 17.165zM302.224 28.59c1.583 0 3.067-.295 4.452-.89 1.386-.592 2.598-1.417 3.636-2.472 1.04-1.055 1.855-2.276 2.45-3.66.592-1.386.89-2.853.89-4.403 0-1.55-.298-3.017-.89-4.403-.595-1.385-1.42-2.605-2.475-3.66-1.055-1.055-2.275-1.88-3.66-2.474-1.385-.593-2.853-.89-4.403-.89h-5.737V28.59h5.737zM290.798 1.53c0-.845.685-1.53 1.53-1.53h9.896c2.342 0 4.552.454 6.63 1.36 2.076.908 3.898 2.144 5.465 3.71 1.565 1.567 2.8 3.39 3.71 5.466.905 2.078 1.36 4.287 1.36 6.63 0 2.34-.455 4.55-1.36 6.627-.91 2.078-2.137 3.9-3.687 5.466-1.55 1.566-3.372 2.803-5.466 3.71-2.094.906-4.31 1.36-6.653 1.36h-9.897c-.844 0-1.53-.684-1.53-1.53V1.53zM269.287 32.475L253.312.708c-.472-.944-1.82-.944-2.293 0l-16.06 31.767c-.425.853.194 1.854 1.147 1.854h3.522c.48 0 .922-.27 1.14-.7l.185-.363 11.21-22.04 11.165 22.04h-.028l.177.354c.216.436.66.71 1.145.71h3.516c.954 0 1.573-1.002 1.147-1.855" fill="#2e3133"/><path d="M95.94 58.682c2.02 0 3.67-1.62 3.67-3.67s-1.65-3.64-3.67-3.64c-2.033 0-3.713 1.59-3.713 3.64s1.695 3.67 3.714 3.67m6.06 2.624c-.797.707-1.843 1.135-2.802 1.135-1.297 0-2.46-.81-3.286-2.196-3.08-.014-5.454-2.284-5.454-5.232 0-2.963 2.388-5.203 5.468-5.203s5.47 2.254 5.47 5.202c0 2.358-1.52 4.29-3.716 4.968.56.603 1.136.958 1.725.958.545 0 1.223-.324 1.902-.856l.692 1.224zM111.958 60.17h-1.695V58.64c-.53 1.09-1.518 1.577-2.8 1.592-1.8 0-2.875-1.15-2.875-3.022v-4.88h1.695v4.408c0 1.18.693 1.902 1.828 1.902 1.357-.03 2.153-1.076 2.153-2.447v-3.86h1.695v7.84zM120.622 57.414v-.722H118.5c-1.106 0-1.622.294-1.622 1.046 0 .708.575 1.165 1.518 1.165 1.21 0 2.138-.634 2.226-1.49m.015 1.8c-.56.692-1.46 1.03-2.595 1.03-1.695 0-2.756-1.045-2.756-2.43 0-1.43 1.076-2.344 2.963-2.36h2.372v-.235c0-.988-.634-1.577-1.872-1.577-.752 0-1.533.266-2.314.796l-.693-1.178c1.09-.65 1.887-.99 3.376-.99 2.018 0 3.153 1.034 3.168 2.758l.014 5.145h-1.665v-.957zM133.545 55.292v4.88h-1.695v-4.408c0-1.18-.707-1.902-1.887-1.902-1.297.015-2.107.913-2.226 2.137v4.17h-1.695v-7.84h1.695v1.502c.56-1.09 1.563-1.562 2.89-1.562 1.827 0 2.918 1.15 2.918 3.022" fill="#2e3133"/><path d="M141.722 59.67c-.62.368-1.268.574-1.93.574-1.18 0-2.197-.678-2.197-2.284v-4.068h-1.105v-1.268h1.105v-2.152h1.68v2.152h2.314v1.268h-2.315v3.758c0 .81.31 1.06.84 1.06.354 0 .722-.116 1.18-.338l.427 1.298zM144.755 52.33h1.68v7.84h-1.68v-7.84zm1.828-2.24c0 .588-.427 1.015-.987 1.015s-.988-.427-.988-1.016c0-.606.427-1.033.988-1.033.56 0 .987.427.987 1.032" fill="#2e3133"/><path d="M154.85 59.67c-.62.368-1.268.574-1.93.574-1.18 0-2.197-.678-2.197-2.284v-4.068h-1.106v-1.268h1.106v-2.152h1.68v2.152h2.314v1.268h-2.314v3.758c0 .81.31 1.06.84 1.06.354 0 .723-.116 1.18-.338l.427 1.298zM162.572 57.414v-.722h-2.124c-1.105 0-1.62.294-1.62 1.046 0 .708.574 1.165 1.517 1.165 1.21 0 2.138-.634 2.227-1.49m.015 1.8c-.56.692-1.46 1.03-2.595 1.03-1.695 0-2.756-1.045-2.756-2.43 0-1.43 1.076-2.344 2.962-2.36h2.374v-.235c0-.988-.634-1.577-1.873-1.577-.753 0-1.534.266-2.315.796l-.692-1.178c1.09-.65 1.886-.99 3.375-.99 2.02 0 3.154 1.034 3.17 2.758l.015 5.145h-1.666v-.957zM172.43 59.67c-.62.368-1.27.574-1.932.574-1.18 0-2.196-.678-2.196-2.284v-4.068h-1.105v-1.268h1.105v-2.152h1.68v2.152h2.314v1.268h-2.313v3.758c0 .81.308 1.06.84 1.06.353 0 .72-.116 1.178-.338l.43 1.298zM175.463 52.33h1.68v7.84h-1.68v-7.84zm1.827-2.24c0 .588-.426 1.015-.987 1.015-.56 0-.988-.427-.988-1.016 0-.606.428-1.033.988-1.033s.987.427.987 1.032" fill="#2e3133"/><path d="M182.92 60.17l-3.038-7.84h1.768l2.182 6.175 2.152-6.176h1.696l-3.007 7.84h-1.754zM195.46 55.66c-.06-1.268-.9-2.034-2.183-2.034-1.237 0-2.107.78-2.298 2.034h4.48zm1.474 1.238h-5.926c.265 1.21 1.194 1.96 2.43 1.96.857 0 1.638-.324 2.213-.913l.9.958c-.767.84-1.886 1.326-3.242 1.326-2.417 0-4.01-1.607-4.01-3.966 0-2.373 1.637-3.98 3.966-3.995 2.756 0 3.876 1.798 3.67 4.628M212.553 50.84l-.723 1.533c-1.12-.678-2.24-.958-3.02-.958-1.02 0-1.682.383-1.682 1.076 0 2.256 5.57 1.048 5.557 4.762 0 1.843-1.62 2.978-3.892 2.978-1.62 0-3.154-.663-4.215-1.636l.752-1.504c1.06.973 2.388 1.504 3.494 1.504 1.208 0 1.93-.457 1.93-1.253 0-2.3-5.572-1.017-5.572-4.687 0-1.768 1.518-2.874 3.76-2.874 1.34 0 2.652.426 3.61 1.06" fill="#2e3133"/><path d="M223.206 60.17h-1.695V58.64c-.53 1.09-1.517 1.577-2.8 1.592-1.798 0-2.873-1.15-2.873-3.022v-4.88h1.694v4.408c0 1.18.694 1.902 1.83 1.902 1.356-.03 2.15-1.076 2.15-2.447v-3.86h1.696v7.84zM233.726 56.22c0-1.46-.987-2.535-2.388-2.535-1.4 0-2.387 1.06-2.387 2.536 0 1.52.988 2.565 2.388 2.565s2.388-1.06 2.388-2.564m1.71.06c0 2.343-1.475 3.95-3.715 3.95-1.25 0-2.194-.5-2.77-1.415v4.216h-1.695v-10.7h1.696v1.355c.576-.913 1.52-1.415 2.742-1.415 2.225 0 3.744 1.622 3.744 4.01M245.22 56.22c0-1.46-.99-2.535-2.39-2.535-1.4 0-2.386 1.06-2.386 2.536 0 1.52.987 2.565 2.387 2.565s2.39-1.06 2.39-2.564m1.71.06c0 2.343-1.476 3.95-3.716 3.95-1.253 0-2.196-.5-2.77-1.415v4.216h-1.696v-10.7h1.696v1.355c.574-.913 1.517-1.415 2.74-1.415 2.226 0 3.745 1.622 3.745 4.01" fill="#2e3133"/><path fill="#2e3133" d="M250.24 49.233h1.696V60.17h-1.695zM259.07 61.247c-.487 1.237-1.372 1.856-2.552 1.856-.707 0-1.267-.206-1.812-.663l.722-1.31c.37.264.662.382 1.017.382.516 0 .93-.28 1.194-.87l.264-.59-3.243-7.723h1.756l2.342 5.94 2.182-5.94h1.695l-3.566 8.917zM279.154 51.4l-1.017 1.27c-.752-.812-1.828-1.313-2.875-1.313-2.063 0-3.684 1.592-3.684 3.626s1.62 3.64 3.684 3.64c1.033 0 2.094-.47 2.875-1.223l1.032 1.15c-1.048 1.032-2.537 1.695-3.995 1.695-3.023 0-5.366-2.284-5.366-5.247 0-2.934 2.372-5.19 5.423-5.19 1.46 0 2.918.606 3.92 1.593M289.895 55.292v4.88H288.2v-4.408c0-1.18-.707-1.902-1.887-1.902-1.4.015-2.24 1.06-2.24 2.447v3.86h-1.696V49.234h1.696v4.63c.56-1.106 1.562-1.593 2.903-1.593 1.828 0 2.92 1.15 2.92 3.022"/><path d="M298.322 57.414v-.722H296.2c-1.106 0-1.622.294-1.622 1.046 0 .708.575 1.165 1.518 1.165 1.21 0 2.137-.634 2.226-1.49m.015 1.8c-.56.692-1.46 1.03-2.594 1.03-1.695 0-2.757-1.045-2.757-2.43 0-1.43 1.076-2.344 2.963-2.36h2.372v-.235c0-.988-.634-1.577-1.872-1.577-.752 0-1.533.266-2.315.796l-.692-1.178c1.09-.65 1.887-.99 3.376-.99 2.018 0 3.153 1.034 3.167 2.758l.016 5.145h-1.666v-.957zM303.743 52.33h1.68v7.84h-1.68v-7.84zm1.828-2.24c0 .588-.427 1.015-.988 1.015-.56 0-.987-.427-.987-1.016 0-.606.428-1.033.987-1.033.56 0 .99.427.99 1.032M316.903 55.292v4.88h-1.694v-4.408c0-1.18-.71-1.902-1.888-1.902-1.298.015-2.108.913-2.226 2.137v4.17H309.4v-7.84h1.696v1.502c.56-1.09 1.563-1.562 2.89-1.562 1.827 0 2.917 1.15 2.917 3.022" fill="#2e3133"/><path d="M60.26 0c.67 0 1.212.42 1.212.936V36.29c0 1.016-1.063 1.84-2.375 1.84h-5.71c-.97 0-1.756.608-1.756 1.36v22.316c0 .52-.542.94-1.21.94h-9.843c-.668 0-1.21-.42-1.21-.94V39.49c0-.752-.787-1.36-1.757-1.36h-3.907c-.97 0-1.756.608-1.756 1.36v7.622c0 .518-.543.937-1.21.937h-9.843c-.668 0-1.21-.42-1.21-.938V39.49c0-.752-.787-1.36-1.757-1.36H14.02c-.97 0-1.757.608-1.757 1.36V52.19c0 .518-.542.938-1.21.938H1.21c-.668 0-1.21-.42-1.21-.938v-15.75c0-1.057.856-1.913 1.91-1.913h6.175c.97 0 1.756-.61 1.756-1.36V9.99c0-.52.544-.938 1.213-.938h9.84c.67 0 1.213.42 1.213.938v23.18c0 .75.785 1.36 1.756 1.36h3.907c.97 0 1.755-.61 1.755-1.36v-12.3c0-.52.542-.94 1.212-.94h9.84c.67 0 1.212.42 1.212.94v12.3c0 .75.785 1.36 1.755 1.36h3.907c.97 0 1.756-.61 1.756-1.36V.935C49.208.42 49.75 0 50.42 0h9.84z" fill="url(#a)"/></g><defs><linearGradient id="a" x2="1" gradientUnits="userSpaceOnUse" gradientTransform="matrix(-70.937 36.206 -36.206 -70.937 70.937 15.4)"><stop offset="0" stop-color="#fcb617"/><stop offset=".13" stop-color="#fcb617"/><stop offset=".36" stop-color="#f96"/><stop offset=".69" stop-color="#e60020"/><stop offset="1" stop-color="#be0020"/></linearGradient></defs></svg>